<?xml version="1.0" encoding="iso-8859-1"?>
<!-- Generator: Adobe Illustrator 19.0.0, SVG Export Plug-In . SVG Version: 6.00 Build 0)  -->
<svg version="1.1" id="Layer_1" xmlns="http://www.w3.org/2000/svg" xmlns:xlink="http://www.w3.org/1999/xlink" x="0px" y="0px"
	 viewBox="0 0 297 297" style="enable-background:new 0 0 297 297;" xml:space="preserve">
<g>
	<g id="XMLID_39_">
		<g>
			<path style="fill:#16A085;" d="M29.43,236.55c3.97,0,7.21,3.23,7.21,7.21c0,3.98-3.24,7.22-7.21,7.22
				c-3.98,0-7.22-3.24-7.22-7.22C22.21,239.78,25.45,236.55,29.43,236.55z"/>
			<rect x="95.49" y="231.05" style="fill:#16A085;" width="179.31" height="25.43"/>
			<path style="fill:#1ABC9C;" d="M29.43,141.28c3.97,0,7.21,3.24,7.21,7.22s-3.24,7.22-7.21,7.22c-3.98,0-7.22-3.24-7.22-7.22
				S25.45,141.28,29.43,141.28z"/>
			<rect x="95.49" y="135.79" style="fill:#1ABC9C;" width="179.31" height="25.42"/>
			<path style="fill:#2ECC71;" d="M29.43,46.02c3.97,0,7.21,3.24,7.21,7.22s-3.24,7.21-7.21,7.21c-3.98,0-7.22-3.23-7.22-7.21
				S25.45,46.02,29.43,46.02z"/>
			<rect x="95.49" y="40.52" style="fill:#2ECC71;" width="179.31" height="25.43"/>
			<path d="M297,230.72v26.08c0,12.07-9.81,21.88-21.87,21.88H95.16c-12.06,0-21.88-9.81-21.88-21.88v-26.08
				c0-12.06,9.82-21.88,21.88-21.88h179.97C287.19,208.84,297,218.66,297,230.72z M274.8,256.48v-25.43H95.49v25.43H274.8z"/>
			<path d="M297,135.46v26.08c0,12.07-9.81,21.88-21.87,21.88H95.16c-12.06,0-21.88-9.81-21.88-21.88v-26.08
				c0-12.07,9.82-21.88,21.88-21.88h179.97C287.19,113.58,297,123.39,297,135.46z M274.8,161.21v-25.42H95.49v25.42H274.8z"/>
			<path d="M297,40.2v26.08c0,12.06-9.81,21.88-21.87,21.88H95.16c-12.06,0-21.88-9.82-21.88-21.88V40.2
				c0-12.07,9.82-21.88,21.88-21.88h179.97C287.19,18.32,297,28.13,297,40.2z M274.8,65.95V40.52H95.49v25.43H274.8z"/>
			<path d="M29.43,23.82c16.22,0,29.42,13.19,29.42,29.42c0,16.22-13.2,29.42-29.42,29.42C13.2,82.66,0,69.46,0,53.24
				C0,37.01,13.2,23.82,29.43,23.82z M36.64,53.24c0-3.98-3.24-7.22-7.21-7.22c-3.98,0-7.22,3.24-7.22,7.22s3.24,7.21,7.22,7.21
				C33.4,60.45,36.64,57.22,36.64,53.24z"/>
			<path d="M29.43,119.08c16.22,0,29.42,13.2,29.42,29.42s-13.2,29.42-29.42,29.42C13.2,177.92,0,164.72,0,148.5
				S13.2,119.08,29.43,119.08z M36.64,148.5c0-3.98-3.24-7.22-7.21-7.22c-3.98,0-7.22,3.24-7.22,7.22s3.24,7.22,7.22,7.22
				C33.4,155.72,36.64,152.48,36.64,148.5z"/>
			<path d="M29.43,214.34c16.22,0,29.42,13.2,29.42,29.42c0,16.23-13.2,29.42-29.42,29.42C13.2,273.18,0,259.99,0,243.76
				C0,227.54,13.2,214.34,29.43,214.34z M36.64,243.76c0-3.98-3.24-7.21-7.21-7.21c-3.98,0-7.22,3.23-7.22,7.21
				c0,3.98,3.24,7.22,7.22,7.22C33.4,250.98,36.64,247.74,36.64,243.76z"/>
		</g>
	</g>
</g>
<g>
</g>
<g>
</g>
<g>
</g>
<g>
</g>
<g>
</g>
<g>
</g>
<g>
</g>
<g>
</g>
<g>
</g>
<g>
</g>
<g>
</g>
<g>
</g>
<g>
</g>
<g>
</g>
<g>
</g>
</svg>
